<mxfile host="app.diagrams.net" modified="2024-01-05T21:07:43.226Z" agent="Mozilla/5.0 (Windows NT 10.0; Win64; x64) AppleWebKit/537.36 (KHTML, like Gecko) Chrome/120.0.0.0 Safari/537.36" etag="paZSwpwI2I1bhzusnQjc" version="22.1.17" type="device">
  <diagram name="Seite-1" id="ILDbKF3d8qMEyiGiMhM8">
    <mxGraphModel dx="957" dy="446" grid="1" gridSize="10" guides="1" tooltips="1" connect="1" arrows="1" fold="1" page="1" pageScale="1" pageWidth="827" pageHeight="1169" math="0" shadow="0">
      <root>
        <mxCell id="0" />
        <mxCell id="1" parent="0" />
        <mxCell id="Tj8pwtwo7b4YPSIV7wdt-5" value="&lt;font style=&quot;font-size: 10px;&quot;&gt;«Component»&lt;/font&gt;&lt;b&gt;&lt;br&gt;Tourist&lt;/b&gt;" style="html=1;dropTarget=0;whiteSpace=wrap;" parent="1" vertex="1">
          <mxGeometry x="40" y="200" width="160" height="80" as="geometry" />
        </mxCell>
        <mxCell id="Tj8pwtwo7b4YPSIV7wdt-6" value="" style="shape=module;jettyWidth=8;jettyHeight=4;" parent="Tj8pwtwo7b4YPSIV7wdt-5" vertex="1">
          <mxGeometry x="1" width="20" height="20" relative="1" as="geometry">
            <mxPoint x="-27" y="7" as="offset" />
          </mxGeometry>
        </mxCell>
        <mxCell id="Tj8pwtwo7b4YPSIV7wdt-7" value="&lt;font style=&quot;font-size: 10px;&quot;&gt;«Component»&lt;/font&gt;&lt;b&gt;&lt;br&gt;Government&lt;/b&gt;" style="html=1;dropTarget=0;whiteSpace=wrap;" parent="1" vertex="1">
          <mxGeometry x="40" y="40" width="160" height="80" as="geometry" />
        </mxCell>
        <mxCell id="Tj8pwtwo7b4YPSIV7wdt-8" value="" style="shape=module;jettyWidth=8;jettyHeight=4;" parent="Tj8pwtwo7b4YPSIV7wdt-7" vertex="1">
          <mxGeometry x="1" width="20" height="20" relative="1" as="geometry">
            <mxPoint x="-27" y="7" as="offset" />
          </mxGeometry>
        </mxCell>
        <mxCell id="Tj8pwtwo7b4YPSIV7wdt-9" value="&lt;font style=&quot;font-size: 10px;&quot;&gt;«Component»&lt;/font&gt;&lt;b&gt;&lt;br&gt;Restaurant&lt;/b&gt;" style="html=1;dropTarget=0;whiteSpace=wrap;" parent="1" vertex="1">
          <mxGeometry x="520" y="200" width="160" height="80" as="geometry" />
        </mxCell>
        <mxCell id="Tj8pwtwo7b4YPSIV7wdt-10" value="" style="shape=module;jettyWidth=8;jettyHeight=4;" parent="Tj8pwtwo7b4YPSIV7wdt-9" vertex="1">
          <mxGeometry x="1" width="20" height="20" relative="1" as="geometry">
            <mxPoint x="-27" y="7" as="offset" />
          </mxGeometry>
        </mxCell>
        <mxCell id="Tj8pwtwo7b4YPSIV7wdt-11" value="&lt;font style=&quot;font-size: 10px;&quot;&gt;«Component»&lt;/font&gt;&lt;b&gt;&lt;br&gt;Itinerary&lt;/b&gt;" style="html=1;dropTarget=0;whiteSpace=wrap;" parent="1" vertex="1">
          <mxGeometry x="280" y="200" width="160" height="80" as="geometry" />
        </mxCell>
        <mxCell id="Tj8pwtwo7b4YPSIV7wdt-12" value="" style="shape=module;jettyWidth=8;jettyHeight=4;" parent="Tj8pwtwo7b4YPSIV7wdt-11" vertex="1">
          <mxGeometry x="1" width="20" height="20" relative="1" as="geometry">
            <mxPoint x="-27" y="7" as="offset" />
          </mxGeometry>
        </mxCell>
        <mxCell id="Tj8pwtwo7b4YPSIV7wdt-13" value="&lt;font style=&quot;font-size: 10px;&quot;&gt;«Component»&lt;/font&gt;&lt;b&gt;&lt;br&gt;Tourist Attraction&lt;/b&gt;" style="html=1;dropTarget=0;whiteSpace=wrap;" parent="1" vertex="1">
          <mxGeometry x="280" y="360" width="160" height="80" as="geometry" />
        </mxCell>
        <mxCell id="Tj8pwtwo7b4YPSIV7wdt-14" value="" style="shape=module;jettyWidth=8;jettyHeight=4;" parent="Tj8pwtwo7b4YPSIV7wdt-13" vertex="1">
          <mxGeometry x="1" width="20" height="20" relative="1" as="geometry">
            <mxPoint x="-27" y="7" as="offset" />
          </mxGeometry>
        </mxCell>
        <mxCell id="Tj8pwtwo7b4YPSIV7wdt-57" style="edgeStyle=orthogonalEdgeStyle;rounded=0;orthogonalLoop=1;jettySize=auto;html=1;exitX=0;exitY=0.5;exitDx=0;exitDy=0;exitPerimeter=0;entryX=0.5;entryY=0;entryDx=0;entryDy=0;endArrow=none;endFill=0;" parent="1" source="Tj8pwtwo7b4YPSIV7wdt-25" target="Tj8pwtwo7b4YPSIV7wdt-13" edge="1">
          <mxGeometry relative="1" as="geometry" />
        </mxCell>
        <mxCell id="Tj8pwtwo7b4YPSIV7wdt-25" value="" style="shape=providedRequiredInterface;html=1;verticalLabelPosition=bottom;sketch=0;direction=south;rotation=180;" parent="1" vertex="1">
          <mxGeometry x="350" y="310" width="20" height="20" as="geometry" />
        </mxCell>
        <mxCell id="Tj8pwtwo7b4YPSIV7wdt-28" value="" style="endArrow=none;html=1;rounded=0;entryX=0.5;entryY=1;entryDx=0;entryDy=0;exitX=1;exitY=0.5;exitDx=0;exitDy=0;exitPerimeter=0;" parent="1" source="Tj8pwtwo7b4YPSIV7wdt-25" target="Tj8pwtwo7b4YPSIV7wdt-11" edge="1">
          <mxGeometry width="50" height="50" relative="1" as="geometry">
            <mxPoint x="310" y="300" as="sourcePoint" />
            <mxPoint x="360" y="250" as="targetPoint" />
          </mxGeometry>
        </mxCell>
        <mxCell id="Tj8pwtwo7b4YPSIV7wdt-30" value="" style="shape=providedRequiredInterface;html=1;verticalLabelPosition=bottom;sketch=0;direction=south;rotation=90;" parent="1" vertex="1">
          <mxGeometry x="470" y="210" width="20" height="20" as="geometry" />
        </mxCell>
        <mxCell id="Tj8pwtwo7b4YPSIV7wdt-31" value="" style="endArrow=none;html=1;rounded=0;entryX=1;entryY=0.25;entryDx=0;entryDy=0;exitX=1;exitY=0.5;exitDx=0;exitDy=0;exitPerimeter=0;" parent="1" source="Tj8pwtwo7b4YPSIV7wdt-30" target="Tj8pwtwo7b4YPSIV7wdt-11" edge="1">
          <mxGeometry width="50" height="50" relative="1" as="geometry">
            <mxPoint x="410" y="320" as="sourcePoint" />
            <mxPoint x="410" y="290" as="targetPoint" />
          </mxGeometry>
        </mxCell>
        <mxCell id="Tj8pwtwo7b4YPSIV7wdt-32" value="" style="endArrow=none;html=1;rounded=0;entryX=0;entryY=0.5;entryDx=0;entryDy=0;entryPerimeter=0;exitX=0;exitY=0.25;exitDx=0;exitDy=0;" parent="1" source="Tj8pwtwo7b4YPSIV7wdt-9" target="Tj8pwtwo7b4YPSIV7wdt-30" edge="1">
          <mxGeometry width="50" height="50" relative="1" as="geometry">
            <mxPoint x="410" y="370" as="sourcePoint" />
            <mxPoint x="410" y="340" as="targetPoint" />
          </mxGeometry>
        </mxCell>
        <mxCell id="Tj8pwtwo7b4YPSIV7wdt-33" value="" style="endArrow=none;html=1;rounded=0;entryX=1;entryY=0.75;entryDx=0;entryDy=0;exitX=0;exitY=0.5;exitDx=0;exitDy=0;exitPerimeter=0;" parent="1" source="Tj8pwtwo7b4YPSIV7wdt-35" target="Tj8pwtwo7b4YPSIV7wdt-5" edge="1">
          <mxGeometry width="50" height="50" relative="1" as="geometry">
            <mxPoint x="240" y="260" as="sourcePoint" />
            <mxPoint x="410" y="290" as="targetPoint" />
          </mxGeometry>
        </mxCell>
        <mxCell id="Tj8pwtwo7b4YPSIV7wdt-35" value="" style="shape=providedRequiredInterface;html=1;verticalLabelPosition=bottom;sketch=0;direction=south;rotation=270;" parent="1" vertex="1">
          <mxGeometry x="230" y="250" width="20" height="20" as="geometry" />
        </mxCell>
        <mxCell id="Tj8pwtwo7b4YPSIV7wdt-36" value="" style="endArrow=none;html=1;rounded=0;exitX=0;exitY=0.75;exitDx=0;exitDy=0;entryX=1;entryY=0.5;entryDx=0;entryDy=0;entryPerimeter=0;" parent="1" source="Tj8pwtwo7b4YPSIV7wdt-11" target="Tj8pwtwo7b4YPSIV7wdt-35" edge="1">
          <mxGeometry width="50" height="50" relative="1" as="geometry">
            <mxPoint x="250" y="250" as="sourcePoint" />
            <mxPoint x="250" y="240" as="targetPoint" />
          </mxGeometry>
        </mxCell>
        <mxCell id="Tj8pwtwo7b4YPSIV7wdt-37" value="" style="shape=providedRequiredInterface;html=1;verticalLabelPosition=bottom;sketch=0;direction=south;rotation=180;" parent="1" vertex="1">
          <mxGeometry x="110" y="150" width="20" height="20" as="geometry" />
        </mxCell>
        <mxCell id="Tj8pwtwo7b4YPSIV7wdt-44" style="edgeStyle=orthogonalEdgeStyle;rounded=0;orthogonalLoop=1;jettySize=auto;html=1;exitX=0.5;exitY=1;exitDx=0;exitDy=0;entryX=1;entryY=0.5;entryDx=0;entryDy=0;entryPerimeter=0;endArrow=none;endFill=0;" parent="1" source="Tj8pwtwo7b4YPSIV7wdt-7" target="Tj8pwtwo7b4YPSIV7wdt-37" edge="1">
          <mxGeometry relative="1" as="geometry" />
        </mxCell>
        <mxCell id="Tj8pwtwo7b4YPSIV7wdt-45" style="edgeStyle=orthogonalEdgeStyle;rounded=0;orthogonalLoop=1;jettySize=auto;html=1;entryX=0.5;entryY=0;entryDx=0;entryDy=0;endArrow=none;endFill=0;" parent="1" target="Tj8pwtwo7b4YPSIV7wdt-5" edge="1">
          <mxGeometry relative="1" as="geometry">
            <mxPoint x="120" y="170" as="sourcePoint" />
            <mxPoint x="130" y="160" as="targetPoint" />
          </mxGeometry>
        </mxCell>
        <mxCell id="Tj8pwtwo7b4YPSIV7wdt-48" style="edgeStyle=orthogonalEdgeStyle;rounded=0;orthogonalLoop=1;jettySize=auto;html=1;entryX=0.5;entryY=0;entryDx=0;entryDy=0;endArrow=none;endFill=0;exitX=0;exitY=0.5;exitDx=0;exitDy=0;exitPerimeter=0;" parent="1" source="Tj8pwtwo7b4YPSIV7wdt-46" target="Tj8pwtwo7b4YPSIV7wdt-11" edge="1">
          <mxGeometry relative="1" as="geometry">
            <mxPoint x="310" y="100" as="sourcePoint" />
          </mxGeometry>
        </mxCell>
        <mxCell id="Tj8pwtwo7b4YPSIV7wdt-46" value="" style="shape=providedRequiredInterface;html=1;verticalLabelPosition=bottom;sketch=0;direction=south;rotation=90;" parent="1" vertex="1">
          <mxGeometry x="280" y="90" width="20" height="20" as="geometry" />
        </mxCell>
        <mxCell id="Tj8pwtwo7b4YPSIV7wdt-47" style="edgeStyle=orthogonalEdgeStyle;rounded=0;orthogonalLoop=1;jettySize=auto;html=1;exitX=1;exitY=0.75;exitDx=0;exitDy=0;endArrow=none;endFill=0;entryX=1;entryY=0.5;entryDx=0;entryDy=0;entryPerimeter=0;" parent="1" source="Tj8pwtwo7b4YPSIV7wdt-7" target="Tj8pwtwo7b4YPSIV7wdt-46" edge="1">
          <mxGeometry relative="1" as="geometry">
            <mxPoint x="260" y="80" as="targetPoint" />
          </mxGeometry>
        </mxCell>
        <mxCell id="Tj8pwtwo7b4YPSIV7wdt-51" value="" style="edgeStyle=orthogonalEdgeStyle;rounded=0;orthogonalLoop=1;jettySize=auto;html=1;exitX=1;exitY=0.25;exitDx=0;exitDy=0;entryX=1;entryY=0.5;entryDx=0;entryDy=0;entryPerimeter=0;endArrow=none;endFill=0;" parent="1" source="Tj8pwtwo7b4YPSIV7wdt-7" target="Tj8pwtwo7b4YPSIV7wdt-50" edge="1">
          <mxGeometry relative="1" as="geometry">
            <mxPoint x="200" y="60" as="sourcePoint" />
            <mxPoint x="600" y="200" as="targetPoint" />
            <Array as="points" />
          </mxGeometry>
        </mxCell>
        <mxCell id="Tj8pwtwo7b4YPSIV7wdt-52" style="edgeStyle=orthogonalEdgeStyle;rounded=0;orthogonalLoop=1;jettySize=auto;html=1;entryX=0.25;entryY=0;entryDx=0;entryDy=0;endArrow=none;endFill=0;exitX=0;exitY=0.5;exitDx=0;exitDy=0;exitPerimeter=0;" parent="1" source="Tj8pwtwo7b4YPSIV7wdt-50" target="Tj8pwtwo7b4YPSIV7wdt-9" edge="1">
          <mxGeometry relative="1" as="geometry">
            <Array as="points">
              <mxPoint x="600" y="60" />
              <mxPoint x="600" y="200" />
            </Array>
            <mxPoint x="490" y="60" as="sourcePoint" />
          </mxGeometry>
        </mxCell>
        <mxCell id="Tj8pwtwo7b4YPSIV7wdt-50" value="" style="shape=providedRequiredInterface;html=1;verticalLabelPosition=bottom;sketch=0;direction=south;rotation=90;" parent="1" vertex="1">
          <mxGeometry x="470" y="50" width="20" height="20" as="geometry" />
        </mxCell>
        <mxCell id="Tj8pwtwo7b4YPSIV7wdt-62" value="Tourist Input" style="text;html=1;strokeColor=none;fillColor=none;align=center;verticalAlign=middle;whiteSpace=wrap;rounded=0;" parent="1" vertex="1">
          <mxGeometry x="210" y="280" width="60" height="30" as="geometry" />
        </mxCell>
        <mxCell id="Tj8pwtwo7b4YPSIV7wdt-63" value="Attraction Details" style="text;html=1;strokeColor=none;fillColor=none;align=center;verticalAlign=middle;whiteSpace=wrap;rounded=0;" parent="1" vertex="1">
          <mxGeometry x="374" y="305" width="60" height="30" as="geometry" />
        </mxCell>
        <mxCell id="Tj8pwtwo7b4YPSIV7wdt-64" value="Restaurant Details" style="text;html=1;strokeColor=none;fillColor=none;align=center;verticalAlign=middle;whiteSpace=wrap;rounded=0;" parent="1" vertex="1">
          <mxGeometry x="450" y="170" width="60" height="30" as="geometry" />
        </mxCell>
        <mxCell id="Tj8pwtwo7b4YPSIV7wdt-65" value="Itinerary Insights" style="text;html=1;strokeColor=none;fillColor=none;align=center;verticalAlign=middle;whiteSpace=wrap;rounded=0;" parent="1" vertex="1">
          <mxGeometry x="260" y="120" width="60" height="30" as="geometry" />
        </mxCell>
        <mxCell id="Tj8pwtwo7b4YPSIV7wdt-66" value="Tourist Profile" style="text;html=1;strokeColor=none;fillColor=none;align=center;verticalAlign=middle;whiteSpace=wrap;rounded=0;" parent="1" vertex="1">
          <mxGeometry x="40" y="145" width="60" height="30" as="geometry" />
        </mxCell>
        <mxCell id="Tj8pwtwo7b4YPSIV7wdt-67" value="Restaurant Profile" style="text;html=1;strokeColor=none;fillColor=none;align=center;verticalAlign=middle;whiteSpace=wrap;rounded=0;" parent="1" vertex="1">
          <mxGeometry x="450" y="80" width="60" height="30" as="geometry" />
        </mxCell>
        <mxCell id="erItscCAWQAN8Le-8sjd-11" value="&lt;font style=&quot;font-size: 10px;&quot;&gt;«Component»&lt;/font&gt;&lt;b&gt;&lt;br&gt;Review Analyzer&lt;br&gt;&lt;/b&gt;" style="html=1;dropTarget=0;whiteSpace=wrap;" parent="1" vertex="1">
          <mxGeometry x="280" y="485" width="160" height="80" as="geometry" />
        </mxCell>
        <mxCell id="erItscCAWQAN8Le-8sjd-12" value="" style="shape=module;jettyWidth=8;jettyHeight=4;" parent="erItscCAWQAN8Le-8sjd-11" vertex="1">
          <mxGeometry x="1" width="20" height="20" relative="1" as="geometry">
            <mxPoint x="-27" y="7" as="offset" />
          </mxGeometry>
        </mxCell>
        <mxCell id="erItscCAWQAN8Le-8sjd-13" style="edgeStyle=orthogonalEdgeStyle;rounded=0;orthogonalLoop=1;jettySize=auto;html=1;entryX=0;entryY=0.5;entryDx=0;entryDy=0;endArrow=none;endFill=0;exitX=1;exitY=0.5;exitDx=0;exitDy=0;exitPerimeter=0;" parent="1" source="erItscCAWQAN8Le-8sjd-14" target="erItscCAWQAN8Le-8sjd-11" edge="1">
          <mxGeometry relative="1" as="geometry">
            <mxPoint x="90" y="510" as="sourcePoint" />
          </mxGeometry>
        </mxCell>
        <mxCell id="erItscCAWQAN8Le-8sjd-14" value="" style="shape=providedRequiredInterface;html=1;verticalLabelPosition=bottom;sketch=0;direction=south;rotation=0;" parent="1" vertex="1">
          <mxGeometry x="110" y="390" width="20" height="20" as="geometry" />
        </mxCell>
        <mxCell id="erItscCAWQAN8Le-8sjd-15" value="" style="endArrow=none;html=1;rounded=0;entryX=0.5;entryY=1;entryDx=0;entryDy=0;exitX=0;exitY=0.5;exitDx=0;exitDy=0;exitPerimeter=0;" parent="1" source="erItscCAWQAN8Le-8sjd-14" target="Tj8pwtwo7b4YPSIV7wdt-5" edge="1">
          <mxGeometry width="50" height="50" relative="1" as="geometry">
            <mxPoint x="80" y="460" as="sourcePoint" />
            <mxPoint x="360" y="460" as="targetPoint" />
          </mxGeometry>
        </mxCell>
        <mxCell id="erItscCAWQAN8Le-8sjd-16" value="Reviews" style="text;html=1;strokeColor=none;fillColor=none;align=center;verticalAlign=middle;whiteSpace=wrap;rounded=0;" parent="1" vertex="1">
          <mxGeometry x="140" y="385" width="60" height="30" as="geometry" />
        </mxCell>
        <mxCell id="erItscCAWQAN8Le-8sjd-19" style="edgeStyle=orthogonalEdgeStyle;rounded=0;orthogonalLoop=1;jettySize=auto;html=1;exitX=0;exitY=0.5;exitDx=0;exitDy=0;exitPerimeter=0;entryX=1;entryY=0.5;entryDx=0;entryDy=0;endArrow=none;endFill=0;" parent="1" source="erItscCAWQAN8Le-8sjd-20" target="erItscCAWQAN8Le-8sjd-11" edge="1">
          <mxGeometry relative="1" as="geometry">
            <mxPoint x="760" y="525" as="targetPoint" />
          </mxGeometry>
        </mxCell>
        <mxCell id="erItscCAWQAN8Le-8sjd-20" value="" style="shape=providedRequiredInterface;html=1;verticalLabelPosition=bottom;sketch=0;direction=south;rotation=180;" parent="1" vertex="1">
          <mxGeometry x="630" y="390" width="20" height="20" as="geometry" />
        </mxCell>
        <mxCell id="erItscCAWQAN8Le-8sjd-21" value="" style="endArrow=none;html=1;rounded=0;entryX=0.75;entryY=1;entryDx=0;entryDy=0;exitX=1;exitY=0.5;exitDx=0;exitDy=0;exitPerimeter=0;" parent="1" source="erItscCAWQAN8Le-8sjd-20" target="Tj8pwtwo7b4YPSIV7wdt-9" edge="1">
          <mxGeometry width="50" height="50" relative="1" as="geometry">
            <mxPoint x="600" y="430" as="sourcePoint" />
            <mxPoint x="600" y="280" as="targetPoint" />
          </mxGeometry>
        </mxCell>
        <mxCell id="erItscCAWQAN8Le-8sjd-22" value="Review Insights" style="text;html=1;strokeColor=none;fillColor=none;align=center;verticalAlign=middle;whiteSpace=wrap;rounded=0;" parent="1" vertex="1">
          <mxGeometry x="570" y="385" width="60" height="30" as="geometry" />
        </mxCell>
        <mxCell id="erItscCAWQAN8Le-8sjd-23" value="Culinary&lt;br&gt;Itinerary" style="text;html=1;strokeColor=none;fillColor=none;align=center;verticalAlign=middle;whiteSpace=wrap;rounded=0;" parent="1" vertex="1">
          <mxGeometry x="210" y="170" width="60" height="30" as="geometry" />
        </mxCell>
        <mxCell id="erItscCAWQAN8Le-8sjd-24" value="" style="shape=providedRequiredInterface;html=1;verticalLabelPosition=bottom;sketch=0;direction=south;rotation=90;" parent="1" vertex="1">
          <mxGeometry x="230" y="210" width="20" height="20" as="geometry" />
        </mxCell>
        <mxCell id="erItscCAWQAN8Le-8sjd-25" value="" style="endArrow=none;html=1;rounded=0;entryX=1;entryY=0.25;entryDx=0;entryDy=0;exitX=1;exitY=0.5;exitDx=0;exitDy=0;exitPerimeter=0;" parent="1" source="erItscCAWQAN8Le-8sjd-24" target="Tj8pwtwo7b4YPSIV7wdt-5" edge="1">
          <mxGeometry width="50" height="50" relative="1" as="geometry">
            <mxPoint x="170" y="310" as="sourcePoint" />
            <mxPoint x="200" y="230" as="targetPoint" />
          </mxGeometry>
        </mxCell>
        <mxCell id="erItscCAWQAN8Le-8sjd-26" value="" style="endArrow=none;html=1;rounded=0;exitX=0;exitY=0.25;exitDx=0;exitDy=0;entryX=0;entryY=0.5;entryDx=0;entryDy=0;entryPerimeter=0;" parent="1" source="Tj8pwtwo7b4YPSIV7wdt-11" target="erItscCAWQAN8Le-8sjd-24" edge="1">
          <mxGeometry width="50" height="50" relative="1" as="geometry">
            <mxPoint x="280" y="230" as="sourcePoint" />
            <mxPoint x="250" y="230" as="targetPoint" />
          </mxGeometry>
        </mxCell>
        <mxCell id="erItscCAWQAN8Le-8sjd-27" value="" style="endArrow=none;html=1;rounded=0;entryX=1;entryY=0.75;entryDx=0;entryDy=0;exitX=0;exitY=0.5;exitDx=0;exitDy=0;exitPerimeter=0;" parent="1" source="erItscCAWQAN8Le-8sjd-28" edge="1">
          <mxGeometry width="50" height="50" relative="1" as="geometry">
            <mxPoint x="480" y="260" as="sourcePoint" />
            <mxPoint x="440" y="260" as="targetPoint" />
          </mxGeometry>
        </mxCell>
        <mxCell id="erItscCAWQAN8Le-8sjd-28" value="" style="shape=providedRequiredInterface;html=1;verticalLabelPosition=bottom;sketch=0;direction=south;rotation=270;" parent="1" vertex="1">
          <mxGeometry x="470" y="250" width="20" height="20" as="geometry" />
        </mxCell>
        <mxCell id="erItscCAWQAN8Le-8sjd-29" value="" style="endArrow=none;html=1;rounded=0;exitX=0;exitY=0.75;exitDx=0;exitDy=0;entryX=1;entryY=0.5;entryDx=0;entryDy=0;entryPerimeter=0;" parent="1" target="erItscCAWQAN8Le-8sjd-28" edge="1">
          <mxGeometry width="50" height="50" relative="1" as="geometry">
            <mxPoint x="520" y="260" as="sourcePoint" />
            <mxPoint x="490" y="240" as="targetPoint" />
          </mxGeometry>
        </mxCell>
        <mxCell id="erItscCAWQAN8Le-8sjd-30" value="Business Insights" style="text;html=1;strokeColor=none;fillColor=none;align=center;verticalAlign=middle;whiteSpace=wrap;rounded=0;" parent="1" vertex="1">
          <mxGeometry x="450" y="280" width="60" height="30" as="geometry" />
        </mxCell>
        <mxCell id="erItscCAWQAN8Le-8sjd-31" style="edgeStyle=orthogonalEdgeStyle;rounded=0;orthogonalLoop=1;jettySize=auto;html=1;exitX=0.25;exitY=1;exitDx=0;exitDy=0;endArrow=none;endFill=0;" parent="1" source="Tj8pwtwo7b4YPSIV7wdt-9" edge="1">
          <mxGeometry relative="1" as="geometry">
            <mxPoint x="120" y="464" as="targetPoint" />
            <mxPoint x="560" y="284" as="sourcePoint" />
            <Array as="points">
              <mxPoint x="560" y="464" />
            </Array>
          </mxGeometry>
        </mxCell>
      </root>
    </mxGraphModel>
  </diagram>
</mxfile>
